<?xml version="1.0" encoding="iso-8859-1"?>
<!-- Generator: Adobe Illustrator 16.0.0, SVG Export Plug-In . SVG Version: 6.00 Build 0)  -->
<!DOCTYPE svg PUBLIC "-//W3C//DTD SVG 1.1//EN" "http://www.w3.org/Graphics/SVG/1.1/DTD/svg11.dtd">
<svg version="1.1" id="Capa_1" xmlns="http://www.w3.org/2000/svg" xmlns:xlink="http://www.w3.org/1999/xlink" x="0px" y="0px"
	 width="550.801px" height="550.801px" viewBox="0 0 550.801 550.801" style="enable-background:new 0 0 550.801 550.801;"
	 xml:space="preserve">
<g>
	<path d="M488.427,197.019h-13.226v-63.816c0-0.401-0.063-0.799-0.116-1.205c-0.021-2.531-0.833-5.021-2.563-6.992L366.325,3.694
		c-0.031-0.031-0.063-0.045-0.084-0.076c-0.633-0.707-1.371-1.295-2.151-1.804c-0.232-0.155-0.465-0.287-0.707-0.422
		c-0.675-0.366-1.393-0.675-2.131-0.896c-0.2-0.053-0.379-0.135-0.58-0.188C359.871,0.119,359.037,0,358.193,0H97.201
		c-11.918,0-21.6,9.693-21.6,21.601v175.413H62.375c-17.041,0-30.871,13.818-30.871,30.873v160.545
		c0,17.038,13.83,30.87,30.871,30.87h13.226V529.2c0,11.907,9.682,21.601,21.6,21.601h356.4c11.907,0,21.601-9.693,21.601-21.601
		V419.302h13.226c17.054,0,30.87-13.827,30.87-30.87v-160.54C519.297,210.832,505.48,197.019,488.427,197.019z M97.201,21.605
		h250.193v110.51c0,5.967,4.841,10.8,10.8,10.8h95.407v54.108h-356.4V21.605z M308.043,292.254v27.939h-54.509v61.023h-34.446
		V229.445h92.773v28.152h-58.327v34.657H308.043z M78.09,307.579c0-51.796,36.946-80.623,82.88-80.623
		c17.793,0,31.303,3.597,37.389,6.761l-6.992,27.255c-6.972-2.945-16.654-5.645-28.825-5.645c-27.245,0-48.413,16.445-48.413,50.227
		c0,30.396,18.014,49.539,48.645,49.539c10.357,0,21.843-2.247,28.593-4.946l5.178,26.799c-6.296,3.154-20.482,6.529-38.95,6.529
		C105.122,383.475,78.09,350.815,78.09,307.579z M453.601,523.353h-356.4V419.302h356.4V523.353z M464.559,374.235
		c-10.578,3.591-30.628,8.563-50.678,8.563c-27.701,0-47.729-6.997-61.704-20.508c-13.953-13.068-21.61-32.875-21.379-55.171
		c0.222-50.448,36.925-79.273,86.701-79.273c19.585,0,34.678,3.839,42.103,7.446l-7.203,27.454
		c-8.321-3.597-18.689-6.529-35.363-6.529c-28.582,0-50.209,16.224-50.209,49.098c0,31.303,19.602,49.771,47.751,49.771
		c7.879,0,14.175-0.896,16.875-2.246v-31.768h-23.414v-26.772h56.521V374.235L464.559,374.235z" fill="#c5c5c5"/>
</g>
<g>
</g>
<g>
</g>
<g>
</g>
<g>
</g>
<g>
</g>
<g>
</g>
<g>
</g>
<g>
</g>
<g>
</g>
<g>
</g>
<g>
</g>
<g>
</g>
<g>
</g>
<g>
</g>
<g>
</g>
</svg>
